<svg xmlns="http://www.w3.org/2000/svg" width="639.975" height="512.012" viewBox="0 0 639.975 512.012">
  <path id="user-edit-solid" d="M224,256A128,128,0,1,0,96,128,127.99,127.99,0,0,0,224,256Zm89.6,32H296.9a174.075,174.075,0,0,1-145.8,0H134.4A134.435,134.435,0,0,0,0,422.4V464a48.012,48.012,0,0,0,48,48H322.9a48.022,48.022,0,0,1-2.6-21.3l6.8-60.9,1.2-11.1,7.9-7.9,77.3-77.3C389,305.8,353.5,288,313.6,288Zm45.3,145.3-6.8,61a15.919,15.919,0,0,0,17.6,17.6l60.9-6.8L568.5,367.2l-71.7-71.7ZM633,268.9,595.1,231a23.961,23.961,0,0,0-33.8,0l-37.8,37.8-4.1,4.1,71.8,71.7L633,302.8A24.083,24.083,0,0,0,633,268.9Z" fill="#0061c9"/>
</svg>